<svg width="6" height="9" viewBox="0 0 6 9" fill="none" xmlns="http://www.w3.org/2000/svg">
<path d="M1.56003 0.385307L5.35984 4.18537C5.41419 4.23966 5.44141 4.30212 5.44141 4.37278C5.44141 4.44344 5.41419 4.50601 5.35984 4.56034L1.56003 8.36008C1.5056 8.41452 1.44314 8.44165 1.37245 8.44165C1.30179 8.44165 1.23925 8.41443 1.18492 8.36008L0.77734 7.95247C0.72299 7.89812 0.695829 7.83557 0.695829 7.76491C0.695829 7.69426 0.72299 7.63171 0.77734 7.57736L3.98186 4.37278L0.77714 1.16809C0.72279 1.11377 0.695801 1.05119 0.695801 0.980647C0.695801 0.909874 0.722961 0.847327 0.77714 0.793005L1.1849 0.385337C1.23922 0.331015 1.30179 0.304025 1.37242 0.304025C1.44314 0.303996 1.50568 0.330986 1.56003 0.385307Z" fill="white" fill-opacity="0.32"/>
</svg>
