<svg viewBox="0 0 45 45" fill="none" xmlns="http://www.w3.org/2000/svg"><path d="M29.75 14h-13.5c-1.27 0-2.25.98-2.25 2.25v13.5c0 1.27.98 2.25 2.25 2.25h13.5c1.27 0 2.25-.98 2.25-2.25v-13.5c0-1.27-.98-2.25-2.25-2.25zm-6.736 5.465c1.995 0 3.614 1.567 3.614 3.501s-1.617 3.502-3.614 3.502c-1.995 0-3.614-1.57-3.614-3.502 0-1.934 1.619-3.501 3.614-3.501zm6.736 9.722c0 .394-.169.563-.563.563H16.812c-.393 0-.563-.169-.563-.563v-7.874l1.402.304a5.231 5.231 0 00-.232 1.545c0 2.99 2.505 5.419 5.593 5.419 3.09 0 5.593-2.427 5.593-5.42a5.28 5.28 0 00-.232-1.544l1.375-.304v7.874h.002zm0-10.125a.563.563 0 01-.563.563h-2.25a.563.563 0 01-.564-.563v-2.25c0-.311.252-.563.563-.563h2.25c.312 0 .564.252.564.563v2.25z" fill="#fff"/><path d="M44.5 22.5c0 12.15-9.85 22-22 22s-22-9.85-22-22 9.85-22 22-22 22 9.85 22 22z" stroke="#fff" stroke-opacity=".45"/></svg>