<svg width="206" height="21" viewBox="0 0 206 21" fill="none" xmlns="http://www.w3.org/2000/svg">
<path d="M10.4206 20.8411C13.2913 20.8411 15.9897 19.8651 17.9131 18.2288V8.66945H10.4493L8.98524 11.8846H14.5831V16.5925C13.4348 17.3102 11.9133 17.6834 10.4206 17.6834C6.40162 17.6834 3.38741 14.4969 3.38741 10.4206C3.38741 6.3442 6.40162 3.15773 10.4206 3.15773C12.4588 3.15773 14.4395 3.96152 15.7026 5.31074L17.8556 2.95679C15.9897 1.00473 13.32 0 10.4206 0C4.65051 0 0 4.53567 0 10.4206C0 16.3055 4.65051 20.8411 10.4206 20.8411ZM115.803 20.6115H119.133V0.229636H115.803V20.6115ZM36.6586 17.6834C32.6396 17.6834 29.6254 14.4969 29.6254 10.4206C29.6254 6.3442 32.6396 3.15773 36.6586 3.15773C40.6775 3.15773 43.6918 6.3442 43.6918 10.4206C43.6918 14.4969 40.6775 17.6834 36.6586 17.6834ZM36.6586 20.8411C42.4574 20.8411 47.0792 16.3055 47.0792 10.4206C47.0792 4.53567 42.4574 0 36.6586 0C30.8885 0 26.238 4.53567 26.238 10.4206C26.238 16.3055 30.8885 20.8411 36.6586 20.8411ZM55.7199 20.6115H67.6332V17.3102H59.0499V0.229636H55.7199V20.6115ZM78.8289 17.5111V3.32997H81.9579C86.3501 3.32997 89.2495 6.40161 89.2495 10.4206C89.2495 14.4395 86.3501 17.5111 81.9579 17.5111H78.8289ZM75.4989 20.6115H81.9579C88.0438 20.6115 92.6369 16.1906 92.6369 10.4206C92.6369 4.6505 88.0438 0.229636 81.9579 0.229636H75.4989V20.6115ZM128.951 20.6115H136.759C140.692 20.6115 143.534 18.3149 143.534 14.7553C143.534 12.2291 142.185 10.5641 140.261 9.76031C141.496 8.8704 142.156 7.63601 142.156 5.79877C142.156 2.78456 139.86 0.229636 136.156 0.229636H128.951V20.6115ZM132.281 17.5111V11.655H136.759C139.056 11.655 140.175 12.9181 140.175 14.6118C140.175 16.3055 139.056 17.5111 136.759 17.5111H132.281ZM132.281 8.81298V3.30128H135.726C137.793 3.30128 138.797 4.56437 138.797 6.05713C138.797 7.636 137.793 8.81298 135.726 8.81298H132.281ZM152.031 20.6115H155.361V0.229636H152.031V20.6115ZM163.399 20.6115H179.561V17.3389H169.112L179.762 0.229636H164.605V3.50222H174.049L163.399 20.6115ZM186.078 20.6115H189.637L191.761 16.0758H200.287L202.412 20.6115H206L196.039 0L186.078 20.6115ZM196.039 7.00446L198.852 13.0329H193.197L196.039 7.00446Z" fill="white"/>
</svg>
