<svg width="296" height="55" viewBox="0 0 296 55" fill="none" xmlns="http://www.w3.org/2000/svg">
<path d="M82.3386 39.3505C85.465 39.3505 88.4039 38.2729 90.4985 36.4663V25.912H82.3699L80.7754 29.4618H86.8719V34.6597C85.6213 35.4521 83.9644 35.8642 82.3386 35.8642C77.9617 35.8642 74.6789 32.346 74.6789 27.8454C74.6789 23.3447 77.9617 19.8266 82.3386 19.8266C84.5584 19.8266 86.7156 20.7141 88.0912 22.2037L90.436 19.6048C88.4039 17.4495 85.4963 16.3402 82.3386 16.3402C76.0545 16.3402 70.9898 21.348 70.9898 27.8454C70.9898 34.3428 76.0545 39.3505 82.3386 39.3505ZM197.109 39.097H200.736V16.5938H197.109V39.097ZM110.914 35.8642C106.537 35.8642 103.254 32.346 103.254 27.8454C103.254 23.3447 106.537 19.8266 110.914 19.8266C115.291 19.8266 118.574 23.3447 118.574 27.8454C118.574 32.346 115.291 35.8642 110.914 35.8642ZM110.914 39.3505C117.229 39.3505 122.263 34.3428 122.263 27.8454C122.263 21.348 117.229 16.3402 110.914 16.3402C104.63 16.3402 99.5651 21.348 99.5651 27.8454C99.5651 34.3428 104.63 39.3505 110.914 39.3505ZM131.673 39.097H144.648V35.4521H135.3V16.5938H131.673V39.097ZM156.841 35.674V20.0168H160.249C165.032 20.0168 168.19 23.4081 168.19 27.8454C168.19 32.2826 165.032 35.674 160.249 35.674H156.841ZM153.214 39.097H160.249C166.877 39.097 171.879 34.216 171.879 27.8454C171.879 21.4747 166.877 16.5938 160.249 16.5938H153.214V39.097ZM211.428 39.097H219.932C224.215 39.097 227.31 36.5614 227.31 32.6313C227.31 29.8422 225.841 28.0039 223.746 27.1164C225.09 26.1339 225.809 24.771 225.809 22.7425C225.809 19.4146 223.308 16.5938 219.275 16.5938H211.428V39.097ZM215.055 35.674V29.2083H219.932C222.433 29.2083 223.652 30.6028 223.652 32.4728C223.652 34.3428 222.433 35.674 219.932 35.674H215.055ZM215.055 26.0705V19.9851H218.806C221.057 19.9851 222.151 21.3797 222.151 23.0278C222.151 24.771 221.057 26.0705 218.806 26.0705H215.055ZM236.564 39.097H240.191V16.5938H236.564V39.097ZM248.945 39.097H266.546V35.4838H255.166L266.765 16.5938H250.258V20.2069H260.544L248.945 39.097ZM273.643 39.097H277.52L279.834 34.0892H289.119L291.433 39.097H295.341L284.492 16.3402L273.643 39.097ZM284.492 24.0737L287.556 30.7296H281.397L284.492 24.0737Z" fill="white"/>
<path d="M27.5 54C42.1355 54 54 42.1355 54 27.5C54 12.8644 42.1355 1 27.5 1C12.8645 1 1 12.8644 1 27.5C1 42.1355 12.8645 54 27.5 54Z" stroke="white" stroke-width="0.8466" stroke-miterlimit="22.9256"/>
<path fill-rule="evenodd" clip-rule="evenodd" d="M34.586 13.6489C34.5916 13.9043 34.7562 14.1713 34.7665 14.271C34.4 14.4006 34.4399 13.6284 34.076 13.931C33.8504 14.1183 34.3985 14.8219 34.0542 14.9867C33.8825 15.0687 33.483 15.3142 33.3407 15.266L33.1036 15.0624C32.8896 14.9145 33.0299 14.6252 33.0173 14.3914C32.8169 14.3014 32.529 14.1605 32.4751 14.4724C32.4401 14.6748 32.447 14.9565 32.3353 15.1273C31.8573 15.1358 32.3327 14.7067 31.5648 14.7665C31.4071 14.8318 31.3467 15.4138 30.9571 15.1069C30.7958 14.98 30.9215 14.9436 30.7207 14.911C30.6515 15.0986 30.8195 15.0562 30.7966 15.3032C30.4927 15.408 30.5024 15.4632 30.1467 15.5227C29.9002 15.5637 29.8039 15.7881 29.7507 16.0178C29.8747 16.202 29.8889 16.0842 29.9508 16.3079C29.082 16.3107 29.4511 16.4 29.1014 16.8996C29.0919 16.9129 29.0568 16.9649 29.0527 16.9701L28.9737 17.0465C28.7075 16.6681 29.0794 16.7074 28.9772 16.4462C28.8428 16.4037 28.7642 16.4518 28.5982 16.466C28.451 16.2497 28.2681 16.2346 28.1188 15.9708C27.8287 15.9695 27.4769 16.1845 27.4719 16.4934C27.4661 16.8562 27.4663 16.7214 27.3085 16.9345C27.1779 17.111 27.2567 17.1589 27.2998 17.3662L26.6971 17.3636L26.5574 17.6091C26.2771 17.5778 26.4294 17.4932 26.1521 17.4466C25.9708 17.4164 25.9491 17.4147 25.8684 17.2529L25.8375 17.1927C24.7528 17.205 25.031 17.485 24.6822 17.9208C24.5237 18.1186 24.6089 18.1606 24.5711 18.4536C24.3343 18.6246 24.4214 18.6345 24.2495 18.8304C24.0875 18.8254 24.0187 18.7831 23.8839 18.7702C23.3282 18.7178 23.5429 18.7818 23.366 18.2557C23.3123 18.0957 23.297 17.9065 23.2577 17.7676L22.8457 17.8209C22.7439 18.1636 22.8543 18.1811 22.6047 18.4218C22.4013 18.6183 22.4803 18.7413 22.119 18.7434C22.0504 18.6007 22.0556 18.4947 21.9072 18.4458C21.8056 18.7251 21.9326 18.9563 21.9305 19.1153C21.9289 19.2409 21.8653 19.2592 21.8094 19.3735C21.7456 19.5049 21.7615 19.5815 21.7337 19.7362C21.43 19.798 21.2943 19.6384 21.0734 19.5849C20.7369 19.7775 20.9842 19.6822 20.54 19.7735C20.1886 19.8455 20.4164 20.0696 20.455 20.2435C19.9347 20.394 20.0726 20.6563 19.4356 20.5865C19.2997 20.7515 19.194 20.8418 19.0941 21.0256C18.9483 21.2937 19.0341 21.3736 18.7307 21.4965C18.3137 21.6652 18.5171 21.5886 18.2636 21.8231C18.0892 21.9842 17.9843 22.0776 17.8482 22.2506C17.8339 22.6991 17.9591 22.6484 18.0935 22.8885C18.2951 23.248 18.0947 23.2854 17.9509 23.4417C18.0037 23.6076 18.0633 23.6335 18.1027 23.7968L18.1357 23.9275L18.4427 23.8762C18.4185 24.0345 18.324 24.0255 18.1979 24.2176C18.0264 24.4799 18.0216 24.2121 17.9748 24.5915C17.8201 24.5278 17.9306 24.5347 17.7634 24.4713L17.8501 24.7319C17.2569 25.1506 17.3288 24.9193 17.4356 25.3326L17.4379 25.4392C17.4377 25.4418 17.4054 25.4925 17.3959 25.5758L17.6329 25.7319C17.6161 25.818 17.5909 25.7878 17.5408 25.9071C17.8387 26.0179 17.8944 25.9964 18.115 26.2024C18.2231 26.3037 18.1935 26.2436 18.2498 26.3795C18.1715 26.4748 18.1275 26.4696 18.07 26.5781C18.1375 26.7473 18.2686 26.8288 18.367 26.9802L18.493 27.1519C18.8351 27.1448 18.8105 27.0115 19.0672 26.9705C19.1289 27.1301 19.1273 27.2843 19.1176 27.4856C19.0432 27.5452 18.9572 27.576 18.8881 27.6467C18.7772 27.76 18.8253 27.8053 18.7455 27.9317C18.3458 27.9671 18.2082 27.9037 17.9951 27.6036C17.8765 27.6068 17.7162 27.6603 17.6198 27.6088C17.5069 27.5482 17.5661 27.4819 17.3814 27.4146C17.1129 27.5117 17.3943 27.5247 17.0307 27.5917C16.8072 27.6327 16.8447 27.6437 16.764 27.8538C16.5345 27.8709 16.2677 27.8068 16.0557 27.8726C16.052 28.1049 16.1484 27.8916 16.1773 28.1097C15.6355 28.1099 15.9619 27.8674 15.6743 27.7041C15.5714 27.7855 15.5582 27.8683 15.5326 27.9828L14.8818 27.895C14.6607 28.03 15.0624 27.7749 14.8076 27.9723C14.733 28.0301 14.6823 28.0191 14.5557 28.0477C14.3587 28.092 14.3132 28.0909 14.0759 28.0546C14.1001 27.7758 14.2502 27.916 14.3018 27.7071C14.3723 27.4216 13.9672 27.6023 13.7907 27.6381C13.739 27.7932 13.7841 27.829 13.6497 27.897C13.4064 27.7294 13.7071 27.4205 13.2578 27.4129C13.2278 27.73 13.2718 27.6784 13.1262 27.9213C13.0088 28.1168 13.0285 28.2386 12.8794 28.348C12.6917 28.4854 12.6326 28.4313 12.5207 28.6278C12.3807 28.8739 12.3662 28.7911 12.1762 28.9455L12.1652 29.1735C12.313 29.243 12.355 29.325 12.5069 29.3504L12.492 29.6638C12.7461 29.7723 12.8145 29.7175 13.0321 29.776C13.0297 29.9307 12.964 29.8394 13.0177 29.9938C13.083 30.1809 13.0709 29.9828 13.0737 30.2508L13.2728 30.2404C13.3773 30.8791 13.3069 30.4727 13.6857 30.7464C13.7138 30.9244 13.7181 31.059 13.6011 31.1749C13.4221 31.3526 13.4543 31.1835 13.4931 31.6199C13.3954 31.6962 13.2879 31.7024 13.2243 31.7911C13.1533 31.8908 13.1948 31.9678 13.1516 32.1075L12.5912 32.4216L12.6848 32.7519C12.541 32.9113 12.4467 32.8093 12.4256 33.0888C12.6512 33.176 12.7193 33.0461 12.8293 33.3077L12.5332 33.2655C12.5 33.6936 12.4051 33.5284 12.2644 33.808C11.9853 34.3624 11.9913 34.5017 12.2491 35.0455C12.3636 35.2873 12.4173 35.3785 12.5778 35.5556C12.808 35.5696 12.8982 35.4512 12.8882 35.7316C12.8801 35.9497 12.8376 36.0485 12.7981 36.2034C12.6454 36.8022 12.8071 36.6512 13.031 36.9793C13.0246 37.3354 12.9202 37.3137 12.9061 37.4838C13.0537 37.4265 12.9896 37.3848 13.1182 37.319C13.207 37.2735 13.4094 37.2194 13.4918 37.2906L13.5778 37.3508C13.6836 37.385 13.6026 37.3001 13.777 37.3641C13.8993 37.4549 13.8072 37.4221 13.9092 37.514C14.0597 37.6499 14.1022 37.6337 14.2189 37.8406C14.3085 37.9996 14.2507 37.8911 14.371 38.0115C14.3755 38.244 14.3041 38.2077 14.4217 38.3902C14.5503 38.5893 14.5021 38.4892 14.5274 38.7658C14.6048 38.8024 14.6928 38.8471 14.7608 38.8726C14.8723 38.7783 15.0453 38.7041 15.1452 38.5939C15.2942 38.4301 15.2077 38.2569 15.1887 38.0513L15.5554 37.5747C15.7071 37.3466 15.7765 37.3691 15.9064 37.0923C16.0427 36.8026 16.0022 36.7755 16.3363 36.6864C16.6471 36.6037 16.5071 36.6762 16.684 36.7258C16.8475 36.7714 16.8689 36.6952 17.0894 36.7604C17.2125 36.9001 17.1245 36.9288 17.2623 37.0632L17.3066 37.0242C17.4494 36.9005 17.5768 36.9152 17.7714 36.9444C18.029 36.9834 18.0164 36.8706 18.3094 36.8986C18.6008 37.2123 18.4541 37.1169 18.4103 37.47C18.6148 37.5781 18.5751 37.6021 18.8033 37.5061C19.0106 37.8307 18.9888 37.8525 18.5762 37.8618L18.3881 38.2032C18.464 38.272 18.5594 38.3557 18.6886 38.3467L19.0367 38.2794C19.4244 38.1803 19.2777 37.9064 19.3424 37.6724C19.777 37.7412 20.254 37.8838 20.1901 38.39C20.1737 38.5188 20.0956 38.7328 20.1603 38.8505C20.2576 38.7231 20.2717 38.5443 20.3347 38.3842C20.45 38.0904 20.4761 38.2602 20.6999 38.1189L20.7464 37.782C21.0007 37.7272 20.999 37.8544 21.2324 37.8566C21.3784 37.8009 21.1084 37.7524 21.6847 37.5093C21.9712 37.3885 22.042 37.5151 22.2646 37.6544C22.4421 37.7658 22.5677 37.879 22.7171 37.9963C23.1412 38.329 23.1149 38.5039 23.3886 38.9513C23.5446 39.2063 23.5211 39.2791 23.6181 39.5542C23.6986 39.7833 23.8545 39.8916 23.8399 40.1439C23.8254 40.3948 23.6982 40.6096 23.6867 40.8301C23.7872 40.9345 23.8651 40.944 23.96 41.037C23.9445 41.1754 23.872 41.2626 23.8446 41.5197C23.9853 41.4539 24.0541 41.318 24.1822 41.243C24.3927 41.1198 24.2478 41.1198 24.5202 40.9835C24.7907 40.848 24.7994 40.3064 24.9641 40.1938C25.1717 40.15 25.3742 40.2151 25.5155 40.3193L25.8705 40.6388C26.1033 40.823 26.357 41.2397 26.6018 41.3271C26.5757 40.9297 26.4564 39.1269 26.571 38.7826C26.6426 38.5675 26.7435 38.6823 26.629 38.4146C26.506 38.1271 26.6027 37.8421 26.6926 37.5747C26.5587 37.3756 26.5334 37.4853 26.5256 37.1398C26.5069 36.3195 26.6369 35.4219 27.3563 34.9667C27.4651 34.8979 27.428 34.9484 27.4804 34.8086C27.5054 34.7414 27.531 34.6447 27.5572 34.5698C27.6381 34.3416 27.6531 34.2877 27.7711 34.1576C28.1284 34.1372 28.528 34.3725 28.9204 34.3828C29.0039 34.226 28.9983 34.1195 29.0505 33.9587C29.1219 33.7385 29.2011 33.7735 29.2407 33.6112L28.8372 33.5558C28.8205 33.3983 28.8005 33.4076 28.8945 33.2899L29.8162 33.6376C30.381 33.8166 29.8663 34.3524 30.4862 34.2064L30.5089 33.9831C30.3029 33.8449 30.1961 34.0138 30.1987 33.6859C30.2019 33.2871 30.1901 33.539 30.0026 33.2476C30.062 33.0985 30.2636 32.8848 30.4836 32.8789C30.7748 32.8709 30.8005 33.1031 30.8607 33.3414C31.2552 33.2968 31.5018 33.4001 31.8858 33.3753C31.7669 33.1458 31.7594 33.3874 31.6832 33.1682C31.7848 33.0979 31.8419 33.1404 31.9988 33.1257C32.4459 32.122 32.5721 32.625 32.6049 32.1943C32.628 32.2014 32.5971 32.2299 32.7936 32.2715L32.7136 32.034C32.8724 31.8992 32.9347 31.907 33.1299 31.8069C33.405 31.6658 33.2714 31.6843 33.6584 31.6945C33.7285 31.6132 33.7046 31.5871 33.7656 31.5286C33.8614 31.4371 33.8407 31.5012 33.9492 31.435C34.0734 31.3595 34.0937 31.1848 34.147 31.0364C34.2022 30.8821 34.2637 30.7527 34.3103 30.6026C34.4046 30.2993 34.2995 29.9192 34.7905 30.092C34.9223 30.1382 34.9414 30.2313 35.0603 30.3036C35.2546 30.4218 35.5821 30.2849 35.7311 30.1511C35.8135 29.9869 35.6162 29.5855 35.5554 29.5478C35.4274 29.4688 35.3407 29.5463 35.238 29.5467L35.1464 29.5288C35.1395 29.5269 35.1259 29.5221 35.1172 29.5158C35.3069 29.2109 35.8465 29.6448 35.9164 29.0791L35.7202 28.9336C35.79 28.784 35.907 28.6985 36.0053 28.6027C35.9919 28.2842 36.0392 28.0387 36.0342 27.7298C36.0249 27.1498 35.5864 27.0137 36.2389 26.5632C36.3953 26.6517 36.2857 26.6256 36.3977 26.7596C36.5577 26.7142 36.5068 26.694 36.6082 26.6308C36.7797 26.5244 36.7635 26.6018 36.9132 26.5751C37.1082 26.5404 37.0103 26.5648 37.0526 26.3456C37.0976 26.1129 37.0722 26.2852 37.2206 26.1422L37.1993 25.9019C37.3906 25.821 37.3522 25.7597 37.4628 25.6994C37.6054 25.6219 37.6199 25.8199 37.658 25.8976C37.9527 25.8771 37.9111 25.7543 38.0934 25.6912C38.4035 25.5837 39.497 26.1387 39.6512 25.983L39.6704 25.8497C39.6083 25.5727 39.5809 25.6245 39.695 25.3076C39.602 25.1128 39.4739 24.9737 39.4562 24.7474L39.6641 24.6724C39.6801 24.5729 39.7267 24.4166 39.7327 24.3479C39.7487 24.1598 39.6579 24.1862 39.731 24.0449C39.7396 24.0378 39.7547 24.0203 39.7599 24.0293L39.8209 24.0022C39.9495 23.961 40.1864 23.9495 40.1126 23.7196C39.9967 23.5558 39.8939 23.6206 39.8568 23.4072L40.621 23.5015C40.67 23.3798 40.761 23.2785 40.7476 23.137C40.7189 22.8347 40.5298 22.6818 41.0019 22.6572C41.6227 22.6247 41.299 22.1986 41.5501 22.0746C41.8281 22.0284 41.9403 22.3839 42.0925 22.5127C42.3262 22.7112 42.6096 22.4044 42.6637 22.2422L42.3061 22.1477C42.3507 21.8705 42.8186 21.8017 42.5565 21.4083C42.258 21.2277 42.006 21.4821 41.7146 21.4599C41.6613 21.1844 41.7701 20.9035 41.7394 20.6764C41.5872 20.5509 41.5395 20.6042 41.3876 20.4368C41.2692 20.3062 41.2148 20.2791 41.0688 20.1602C40.8054 19.9454 40.6475 19.8513 40.4528 19.545C40.2959 19.2976 40.1141 18.9796 40.2025 18.6306L40.4087 17.6071C40.8561 17.5297 40.7403 18.0914 41.31 17.7135C41.4198 17.6406 41.607 17.5282 41.6737 17.4429L41.9437 17.0549C41.7448 17.073 41.802 17.336 41.2737 17.226C41.1851 17.13 41.1939 17.0691 41.138 16.9949C41.0242 16.8442 41.038 16.977 40.9476 16.8118L41.1764 16.5091C41.2561 16.3938 41.3268 16.3789 41.4293 16.2164L40.8613 15.9207C40.5912 15.7637 40.6674 15.5353 40.4532 15.4358L40.349 15.7063C40.0502 15.7126 39.9098 15.5642 39.7825 15.4252C39.5647 15.4181 39.4018 15.4574 39.2038 15.4798C38.5446 15.5547 38.7827 15.1886 38.2251 15.9311C37.9085 15.9259 37.8662 15.8618 37.7842 15.5829C37.6429 15.1019 37.6332 15.3994 37.3806 15.1543L37.1352 15.0053C37.014 14.9297 37.0562 14.8633 36.9702 14.7697C36.8293 14.6159 36.5446 14.6532 36.3712 14.541C36.4208 14.2 36.7618 14.2738 36.7461 13.9272C36.7299 13.5673 36.4594 13.5829 36.1345 13.4959C35.7959 13.4053 35.7128 13.7408 35.4367 13.7846C35.1688 13.8269 34.8526 13.6353 34.586 13.6489ZM12.1995 27.3036C12.2992 27.0453 12.2551 27.1437 12.5008 27.0544L12.4711 26.6534C12.2774 26.5747 12.1063 26.6038 11.9532 26.496C11.9711 26.3197 12.1412 26.2615 12.283 26.1657C12.3125 25.7986 12.4022 25.4686 12.1013 25.3389C11.9614 25.4379 11.8591 25.6307 11.6991 25.7785C11.3328 26.1167 11.7025 26.1528 11.6332 26.3523C11.5884 26.4806 11.3412 26.4929 11.6002 26.7611C11.7987 26.9668 11.9471 27.2414 12.1995 27.3036ZM10.2137 38.1553C10.4083 38.1853 10.3394 38.1419 10.4947 38.1221C10.6082 38.1076 10.6423 38.1584 10.7387 38.1829C10.9741 38.2431 10.8779 38.1178 11.0776 38.0656C11.1212 38.0542 11.2126 38.0533 11.2676 38.047C11.4974 37.401 11.0823 37.253 10.7827 37.4072C10.6268 37.4871 10.3796 37.9892 10.2137 38.1553ZM43.8225 20.9221C43.7856 21.3619 44.0855 20.9997 44.068 21.649C44.1364 21.6833 45.0238 22.1611 44.8642 21.6904C44.7949 21.4853 44.5693 21.4314 44.491 21.3375C44.5382 21.1425 44.5954 21.2608 44.5879 20.9631C44.1284 20.9564 44.4138 21.0778 44.1072 21.162C43.9849 20.9586 44.0626 21.0381 44.145 20.8679L43.8225 20.9221ZM10.1164 29.1293C10.2931 29.1409 10.5306 29.057 10.6813 29.1146C10.8966 29.1968 10.7653 29.3247 11.105 29.1233L10.9594 28.7742C10.8116 28.7723 10.4986 28.7509 10.3977 28.8058C10.3269 28.8442 10.1492 29.0609 10.1164 29.1293ZM11.5845 37.5224L11.5608 37.7136C11.6609 37.7906 11.6675 37.7669 11.7836 37.8115L11.8205 37.7694C11.9355 37.6387 11.8943 37.6672 12.022 37.6616C12.0274 37.6694 12.0295 37.675 12.0306 37.6887L12.0504 37.7778C12.1423 38.0498 11.9133 37.5622 12.0709 37.8382C12.1259 37.9345 12.022 37.8525 12.1412 37.9075C12.2491 37.8238 12.2495 37.6348 12.2599 37.4955C11.9581 37.4459 11.8466 37.3825 11.5845 37.5224ZM12.1372 28.0162C12.5375 28.2882 12.7795 28.0208 12.4325 27.7557C12.3442 27.6882 12.292 27.6191 12.1852 27.5706C12.149 27.746 12.1147 27.8172 12.1372 28.0162Z" fill="white"/>
</svg>
