<svg width="296" height="55" viewBox="0 0 296 55" fill="none" xmlns="http://www.w3.org/2000/svg">
<path d="M82.3386 39.3507C85.465 39.3507 88.4038 38.2731 90.4985 36.4665V25.9121H82.3699L80.7754 29.4619H86.8719V34.6599C85.6213 35.4522 83.9643 35.8643 82.3386 35.8643C77.9616 35.8643 74.6789 32.3461 74.6789 27.8455C74.6789 23.3449 77.9616 19.8268 82.3386 19.8268C84.5583 19.8268 86.7156 20.7142 88.0912 22.2039L90.436 19.6049C88.4038 17.4496 85.4963 16.3403 82.3386 16.3403C76.0545 16.3403 70.9897 21.3481 70.9897 27.8455C70.9897 34.3429 76.0545 39.3507 82.3386 39.3507ZM197.109 39.0971H200.736V16.5939H197.109V39.0971ZM110.914 35.8643C106.537 35.8643 103.254 32.3461 103.254 27.8455C103.254 23.3449 106.537 19.8268 110.914 19.8268C115.291 19.8268 118.574 23.3449 118.574 27.8455C118.574 32.3461 115.291 35.8643 110.914 35.8643ZM110.914 39.3507C117.229 39.3507 122.263 34.3429 122.263 27.8455C122.263 21.3481 117.229 16.3403 110.914 16.3403C104.63 16.3403 99.5651 21.3481 99.5651 27.8455C99.5651 34.3429 104.63 39.3507 110.914 39.3507ZM131.673 39.0971H144.648V35.4522H135.3V16.5939H131.673V39.0971ZM156.841 35.6741V20.0169H160.249C165.032 20.0169 168.19 23.4082 168.19 27.8455C168.19 32.2828 165.032 35.6741 160.249 35.6741H156.841ZM153.214 39.0971H160.249C166.877 39.0971 171.879 34.2161 171.879 27.8455C171.879 21.4749 166.877 16.5939 160.249 16.5939H153.214V39.0971ZM211.428 39.0971H219.932C224.215 39.0971 227.31 36.5616 227.31 32.6314C227.31 29.8423 225.841 28.004 223.746 27.1165C225.09 26.134 225.809 24.7711 225.809 22.7427C225.809 19.4147 223.308 16.5939 219.275 16.5939H211.428V39.0971ZM215.054 35.6741V29.2084H219.932C222.433 29.2084 223.652 30.6029 223.652 32.4729C223.652 34.3429 222.433 35.6741 219.932 35.6741H215.054ZM215.054 26.0706V19.9852H218.806C221.057 19.9852 222.151 21.3798 222.151 23.0279C222.151 24.7711 221.057 26.0706 218.806 26.0706H215.054ZM236.564 39.0971H240.191V16.5939H236.564V39.0971ZM248.945 39.0971H266.546V35.4839H255.166L266.765 16.5939H250.258V20.2071H260.544L248.945 39.0971ZM273.643 39.0971H277.52L279.834 34.0894H289.119L291.433 39.0971H295.341L284.492 16.3403L273.643 39.0971ZM284.492 24.0738L287.556 30.7297H281.397L284.492 24.0738Z" fill="white"/>
<path d="M27.5 54C42.1355 54 54 42.1355 54 27.5C54 12.8644 42.1355 1 27.5 1C12.8645 1 1 12.8644 1 27.5C1 42.1355 12.8645 54 27.5 54Z" stroke="white" stroke-width="0.8466" stroke-miterlimit="22.9256"/>
<path fill-rule="evenodd" clip-rule="evenodd" d="M34.5861 13.649C34.5917 13.9044 34.7563 14.1713 34.7666 14.2711C34.4 14.4006 34.4399 13.6285 34.076 13.931C33.8505 14.1184 34.3986 14.822 34.0542 14.9868C33.8825 15.0688 33.483 15.3143 33.3408 15.266L33.1036 15.0624C32.8896 14.9146 33.03 14.6253 33.0173 14.3915C32.8169 14.3015 32.5291 14.1605 32.4752 14.4724C32.4401 14.6749 32.447 14.9566 32.3354 15.1273C31.8574 15.1359 32.3328 14.7068 31.5649 14.7666C31.4072 14.8318 31.3468 15.4139 30.9571 15.107C30.7959 14.9801 30.9215 14.9437 30.7207 14.9111C30.6516 15.0986 30.8195 15.0563 30.7966 15.3033C30.4927 15.4081 30.5024 15.4633 30.1467 15.5227C29.9003 15.5637 29.8039 15.7882 29.7508 16.0179C29.8748 16.2021 29.8889 16.0842 29.9508 16.308C29.0821 16.3108 29.4512 16.4001 29.1015 16.8997C29.092 16.9129 29.0569 16.9649 29.0528 16.9701L28.9738 17.0466C28.7075 16.6681 29.0795 16.7075 28.9773 16.4463C28.8429 16.4038 28.7642 16.4519 28.5983 16.466C28.451 16.2498 28.2681 16.2347 28.1188 15.9709C27.8287 15.9696 27.4769 16.1845 27.4719 16.4935C27.4661 16.8562 27.4663 16.7214 27.3086 16.9345C27.1779 17.1111 27.2568 17.159 27.2998 17.3663L26.6971 17.3637L26.5575 17.6092C26.2771 17.5779 26.4294 17.4933 26.1522 17.4466C25.9708 17.4164 25.9492 17.4148 25.8685 17.2529L25.8375 17.1927C24.7529 17.205 25.031 17.485 24.6822 17.9209C24.5238 18.1187 24.609 18.1606 24.5711 18.4537C24.3344 18.6247 24.4214 18.6345 24.2495 18.8305C24.0875 18.8254 24.0188 18.7831 23.884 18.7703C23.3282 18.7179 23.543 18.7818 23.3661 18.2557C23.3124 18.0958 23.2971 17.9066 23.2578 17.7677L22.8458 17.821C22.744 18.1636 22.8543 18.1812 22.6047 18.4218C22.4013 18.6183 22.4804 18.7414 22.1191 18.7434C22.0505 18.6008 22.0557 18.4947 21.9073 18.4459C21.8057 18.7251 21.9327 18.9563 21.9306 19.1153C21.9289 19.241 21.8654 19.2592 21.8094 19.3735C21.7457 19.505 21.7615 19.5816 21.7337 19.7363C21.4301 19.798 21.2943 19.6385 21.0734 19.5849C20.7369 19.7775 20.9843 19.6822 20.5401 19.7736C20.1886 19.8456 20.4165 20.0696 20.455 20.2436C19.9347 20.394 20.0727 20.6563 19.4357 20.5866C19.2998 20.7516 19.1941 20.8418 19.0941 21.0256C18.9484 21.2937 19.0341 21.3737 18.7308 21.4966C18.3138 21.6653 18.5172 21.5886 18.2636 21.8232C18.0893 21.9842 17.9844 22.0776 17.8483 22.2506C17.8339 22.6992 17.9592 22.6485 18.0936 22.8886C18.2951 23.248 18.0947 23.2855 17.951 23.4417C18.0037 23.6076 18.0634 23.6335 18.1027 23.7969L18.1357 23.9275L18.4428 23.8763C18.4185 24.0345 18.324 24.0256 18.198 24.2176C18.0265 24.4799 18.0216 24.2122 17.9748 24.5916C17.8201 24.5278 17.9307 24.5347 17.7634 24.4713L17.8501 24.732C17.2569 25.1507 17.3289 24.9193 17.4357 25.3326L17.4379 25.4393C17.4378 25.4419 17.4055 25.4926 17.396 25.5759L17.6329 25.7319C17.6162 25.8181 17.591 25.7879 17.5408 25.9072C17.8388 26.0179 17.8945 25.9965 18.115 26.2025C18.2232 26.3037 18.1935 26.2437 18.2498 26.3796C18.1715 26.4749 18.1275 26.4696 18.0701 26.5781C18.1376 26.7474 18.2686 26.8289 18.3671 26.9802L18.4931 27.1519C18.8352 27.1449 18.8106 27.0116 19.0673 26.9706C19.129 27.1301 19.1273 27.2843 19.1176 27.4857C19.0433 27.5453 18.9573 27.5761 18.8881 27.6467C18.7772 27.7601 18.8253 27.8054 18.7455 27.9318C18.3458 27.9672 18.2083 27.9038 17.9952 27.6037C17.8766 27.6068 17.7163 27.6603 17.6199 27.6089C17.5069 27.5483 17.5662 27.4819 17.3815 27.4146C17.113 27.5117 17.3943 27.5248 17.0308 27.5917C16.8073 27.6327 16.8447 27.6437 16.764 27.8538C16.5345 27.871 16.2677 27.8069 16.0558 27.8727C16.0521 28.105 16.1484 27.8917 16.1773 28.1098C15.6356 28.11 15.962 27.8674 15.6744 27.7041C15.5714 27.7856 15.5582 27.8684 15.5327 27.9829L14.8819 27.895C14.6608 28.03 15.0625 27.775 14.8077 27.9724C14.7331 28.0302 14.6824 28.0192 14.5558 28.0477C14.3588 28.0921 14.3133 28.091 14.0759 28.0546C14.1002 27.7759 14.2503 27.9161 14.3019 27.7071C14.3724 27.4217 13.9673 27.6024 13.7907 27.6381C13.7391 27.7933 13.7842 27.829 13.6498 27.8971C13.4065 27.7295 13.7072 27.4206 13.2579 27.4129C13.2279 27.7301 13.2719 27.6784 13.1263 27.9213C13.0088 28.1169 13.0286 28.2386 12.8795 28.3481C12.6917 28.4854 12.6326 28.4314 12.5208 28.6279C12.3808 28.874 12.3662 28.7912 12.1763 28.9455L12.1653 29.1736C12.3131 29.2431 12.3551 29.3251 12.507 29.3505L12.4921 29.6638C12.7462 29.7723 12.8146 29.7175 13.0322 29.7761C13.0297 29.9308 12.9641 29.8395 13.0178 29.9938C13.083 30.181 13.0709 29.9828 13.0737 30.2509L13.2728 30.2405C13.3774 30.8791 13.3069 30.4728 13.6858 30.7464C13.7139 30.9245 13.7182 31.059 13.6011 31.175C13.4221 31.3527 13.4544 31.1836 13.4932 31.62C13.3955 31.6963 13.2879 31.7024 13.2244 31.7912C13.1533 31.8909 13.1949 31.9679 13.1516 32.1075L12.5913 32.4216L12.6848 32.752C12.5411 32.9114 12.4468 32.8094 12.4257 33.0888C12.6513 33.1761 12.7193 33.0462 12.8293 33.3077L12.5333 33.2656C12.5001 33.6936 12.4052 33.5284 12.2644 33.8081C11.9854 34.3625 11.9913 34.5018 12.2492 35.0456C12.3636 35.2874 12.4173 35.3785 12.5778 35.5556C12.8081 35.5696 12.8983 35.4512 12.8882 35.7316C12.8802 35.9497 12.8377 36.0485 12.7982 36.2035C12.6455 36.8023 12.8071 36.6513 13.031 36.9794C13.0247 37.3354 12.9203 37.3138 12.9061 37.4838C13.0538 37.4266 12.9896 37.3848 13.1183 37.319C13.207 37.2735 13.4095 37.2195 13.4919 37.2907L13.5778 37.3509C13.6837 37.385 13.6026 37.3002 13.7771 37.3641C13.8994 37.4549 13.8073 37.4221 13.9093 37.514C14.0597 37.6499 14.1022 37.6337 14.2189 37.8407C14.3086 37.9997 14.2508 37.8912 14.3711 38.0116C14.3755 38.2441 14.3041 38.2077 14.4218 38.3902C14.5504 38.5893 14.5021 38.4892 14.5275 38.7659C14.6048 38.8024 14.6928 38.8472 14.7609 38.8727C14.8724 38.7784 15.0454 38.7042 15.1453 38.594C15.2942 38.4301 15.2077 38.2569 15.1887 38.0513L15.5554 37.5748C15.7072 37.3466 15.7765 37.3692 15.9065 37.0923C16.0427 36.8026 16.0023 36.7756 16.3364 36.6865C16.6471 36.6037 16.5071 36.6762 16.684 36.7258C16.8475 36.7715 16.869 36.6953 17.0895 36.7605C17.2126 36.9001 17.1246 36.9288 17.2623 37.0633L17.3067 37.0243C17.4495 36.9005 17.5768 36.9152 17.7715 36.9445C18.0291 36.9835 18.0164 36.8707 18.3095 36.8986C18.6009 37.2124 18.4541 37.1169 18.4103 37.47C18.6148 37.5782 18.5751 37.6022 18.8033 37.5062C19.0106 37.8308 18.9888 37.8526 18.5763 37.8619L18.3882 38.2032C18.464 38.272 18.5595 38.3557 18.6887 38.3468L19.0367 38.2795C19.4245 38.1803 19.2778 37.9065 19.3425 37.6725C19.777 37.7413 20.2541 37.8839 20.1901 38.39C20.1737 38.5189 20.0956 38.7329 20.1603 38.8505C20.2576 38.7232 20.2718 38.5444 20.3348 38.3843C20.45 38.0905 20.4761 38.2603 20.7 38.119L20.7464 37.7821C21.0007 37.7273 20.999 37.8544 21.2324 37.8567C21.3784 37.8009 21.1085 37.7525 21.6847 37.5094C21.9713 37.3886 22.0421 37.5152 22.2647 37.6544C22.4422 37.7659 22.5678 37.8791 22.7171 37.9963C23.1413 38.3291 23.115 38.5039 23.3886 38.9514C23.5447 39.2064 23.5212 39.2791 23.6181 39.5543C23.6987 39.7834 23.8545 39.8917 23.84 40.1439C23.8254 40.3949 23.6983 40.6096 23.6867 40.8302C23.7872 40.9346 23.8651 40.9441 23.96 41.0371C23.9446 41.1754 23.872 41.2627 23.8446 41.5198C23.9854 41.4539 24.0542 41.318 24.1823 41.2431C24.3927 41.1199 24.2479 41.1199 24.5202 40.9836C24.7907 40.8481 24.7995 40.3065 24.9641 40.1939C25.1718 40.1501 25.3743 40.2152 25.5156 40.3194L25.8705 40.6389C26.1034 40.8231 26.3571 41.2397 26.6019 41.3272C26.5758 40.9297 26.4565 39.127 26.5711 38.7827C26.6427 38.5675 26.7435 38.6824 26.6291 38.4147C26.506 38.1272 26.6028 37.8421 26.6927 37.5748C26.5588 37.3757 26.5335 37.4853 26.5256 37.1399C26.507 36.3196 26.6369 35.422 27.3563 34.9667C27.4652 34.8979 27.4281 34.9484 27.4805 34.8086C27.5055 34.7415 27.531 34.6448 27.5573 34.5698C27.6382 34.3416 27.6531 34.2878 27.7711 34.1576C28.1285 34.1373 28.528 34.3726 28.9204 34.3828C29.004 34.226 28.9984 34.1196 29.0506 33.9587C29.122 33.7385 29.2012 33.7736 29.2407 33.6112L28.8373 33.5558C28.8205 33.3983 28.8006 33.4076 28.8945 33.29L29.8162 33.6377C30.3811 33.8167 29.8664 34.3524 30.4862 34.2065L30.509 33.9831C30.303 33.845 30.1961 34.0139 30.1988 33.686C30.2019 33.2872 30.1902 33.5391 30.0026 33.2477C30.0621 33.0986 30.2636 32.8849 30.4836 32.8789C30.7748 32.8709 30.8005 33.1032 30.8608 33.3415C31.2552 33.2969 31.5019 33.4002 31.8859 33.3754C31.767 33.1459 31.7595 33.3875 31.6833 33.1683C31.7849 33.098 31.8419 33.1405 31.9989 33.1258C32.4459 32.1221 32.5721 32.625 32.6049 32.1944C32.6281 32.2015 32.5971 32.23 32.7936 32.2716L32.7136 32.0341C32.8725 31.8993 32.9347 31.9071 33.1299 31.807C33.4051 31.6659 33.2714 31.6843 33.6584 31.6946C33.7285 31.6133 33.7047 31.5872 33.7656 31.5287C33.8615 31.4371 33.8408 31.5013 33.9493 31.4351C34.0734 31.3596 34.0937 31.1849 34.1471 31.0365C34.2022 30.8821 34.2638 30.7528 34.3104 30.6027C34.4047 30.2994 34.2996 29.9192 34.7906 30.0921C34.9224 30.1383 34.9414 30.2313 35.0604 30.3037C35.2546 30.4219 35.5822 30.285 35.7311 30.1512C35.8135 29.9869 35.6163 29.5856 35.5555 29.5479C35.4274 29.4689 35.3407 29.5464 35.238 29.5468L35.1465 29.5289C35.1396 29.527 35.126 29.5222 35.1172 29.5158C35.307 29.211 35.8465 29.6448 35.9164 29.0792L35.7203 28.9336C35.79 28.7841 35.9071 28.6985 36.0054 28.6027C35.9919 28.2843 36.0393 28.0388 36.0342 27.7299C36.0249 27.1499 35.5865 27.0138 36.2389 26.5632C36.3954 26.6518 36.2857 26.6257 36.3978 26.7597C36.5577 26.7142 36.5068 26.6941 36.6082 26.6309C36.7798 26.5244 36.7635 26.6018 36.9132 26.5752C37.1082 26.5405 37.0104 26.5649 37.0527 26.3457C37.0976 26.113 37.0723 26.2853 37.2207 26.1423L37.1994 25.902C37.3907 25.8211 37.3523 25.7597 37.4628 25.6995C37.6054 25.622 37.62 25.8199 37.658 25.8977C37.9528 25.8772 37.9112 25.7543 38.0935 25.6913C38.4035 25.5837 39.4971 26.1387 39.6513 25.9831L39.6705 25.8498C39.6084 25.5727 39.581 25.6246 39.6951 25.3076C39.6021 25.1128 39.474 24.9738 39.4563 24.7474L39.6641 24.6725C39.6802 24.5729 39.7268 24.4167 39.7327 24.3479C39.7488 24.1598 39.658 24.1863 39.7311 24.045C39.7396 24.0379 39.7547 24.0204 39.76 24.0293L39.8209 24.0023C39.9496 23.9611 40.1865 23.9495 40.1127 23.7197C39.9967 23.5558 39.894 23.6207 39.8569 23.4072L40.6211 23.5016C40.6701 23.3798 40.7611 23.2786 40.7476 23.1371C40.7189 22.8347 40.5299 22.6818 41.0019 22.6572C41.6227 22.6248 41.2991 22.1986 41.5502 22.0747C41.8282 22.0284 41.9404 22.3839 42.0925 22.5128C42.3263 22.7113 42.6097 22.4044 42.6637 22.2423L42.3062 22.1477C42.3507 21.8705 42.8186 21.8017 42.5565 21.4084C42.2581 21.2277 42.006 21.4822 41.7146 21.46C41.6613 21.1845 41.7702 20.9035 41.7394 20.6765C41.5873 20.551 41.5396 20.6043 41.3876 20.4369C41.2693 20.3062 41.2148 20.2792 41.0688 20.1602C40.8054 19.9455 40.6475 19.8513 40.4529 19.545C40.2959 19.2977 40.1142 18.9796 40.2025 18.6306L40.4087 17.6071C40.8561 17.5298 40.7404 18.0915 41.3101 17.7136C41.4199 17.6407 41.6071 17.5283 41.6738 17.4429L41.9437 17.055C41.7448 17.0731 41.8021 17.3361 41.2737 17.2261C41.1852 17.1301 41.1939 17.0691 41.138 16.9949C41.0243 16.8443 41.0381 16.977 40.9477 16.8119L41.1764 16.5091C41.2562 16.3939 41.3269 16.379 41.4294 16.2164L40.8614 15.9207C40.5912 15.7638 40.6675 15.5354 40.4533 15.4359L40.3491 15.7064C40.0502 15.7127 39.9098 15.5643 39.7825 15.4252C39.5648 15.4181 39.4018 15.4575 39.2038 15.4799C38.5446 15.5548 38.7827 15.1887 38.2251 15.9312C37.9086 15.926 37.8662 15.8618 37.7842 15.5829C37.6429 15.102 37.6332 15.3995 37.3806 15.1544L37.1353 15.0054C37.0141 14.9297 37.0562 14.8634 36.9703 14.7698C36.8293 14.616 36.5447 14.6532 36.3713 14.541C36.4209 14.2 36.7619 14.2739 36.7462 13.9273C36.73 13.5673 36.4595 13.583 36.1345 13.4959C35.796 13.4053 35.7129 13.7409 35.4368 13.7847C35.1689 13.827 34.8527 13.6354 34.5861 13.649ZM12.1996 27.3037C12.2993 27.0453 12.2551 27.1438 12.5008 27.0545L12.4712 26.6534C12.2775 26.5748 12.1064 26.6039 11.9533 26.4961C11.9712 26.3197 12.1412 26.2616 12.2831 26.1658C12.3125 25.7987 12.4022 25.4687 12.1013 25.339C11.9615 25.438 11.8592 25.6307 11.6992 25.7786C11.3329 26.1167 11.7026 26.1529 11.6332 26.3524C11.5885 26.4806 11.3413 26.4929 11.6002 26.7612C11.7988 26.9668 11.9472 27.2414 12.1996 27.3037ZM10.2138 38.1553C10.4084 38.1854 10.3394 38.1419 10.4947 38.1222C10.6082 38.1076 10.6424 38.1585 10.7387 38.1829C10.9742 38.2431 10.878 38.1179 11.0777 38.0657C11.1213 38.0543 11.2126 38.0534 11.2676 38.047C11.4975 37.4011 11.0823 37.253 10.7827 37.4072C10.6269 37.4872 10.3797 37.9892 10.2138 38.1553ZM43.8225 20.9222C43.7856 21.3619 44.0856 20.9997 44.0681 21.649C44.1365 21.6833 45.0239 22.1612 44.8643 21.6904C44.7949 21.4854 44.5694 21.4315 44.4911 21.3375C44.5382 21.1425 44.5955 21.2609 44.588 20.9632C44.1285 20.9565 44.4139 21.0778 44.1072 21.1621C43.9849 20.9587 44.0627 21.0381 44.1451 20.8679L43.8225 20.9222ZM10.1165 29.1294C10.2932 29.1409 10.5307 29.057 10.6813 29.1146C10.8966 29.1969 10.7654 29.3247 11.1051 29.1234L10.9595 28.7742C10.8116 28.7724 10.4986 28.7509 10.3978 28.8059C10.3269 28.8443 10.1493 29.0609 10.1165 29.1294ZM11.5846 37.5224L11.5609 37.7137C11.661 37.7907 11.6675 37.767 11.7837 37.8116L11.8206 37.7694C11.9356 37.6388 11.8944 37.6673 12.0221 37.6617C12.0275 37.6695 12.0296 37.6751 12.0307 37.6887L12.0504 37.7778C12.1423 38.0498 11.9134 37.5623 12.0709 37.8382C12.1259 37.9346 12.0221 37.8526 12.1412 37.9076C12.2492 37.8239 12.2495 37.6348 12.26 37.4956C11.9582 37.446 11.8467 37.3826 11.5846 37.5224ZM12.1373 28.0162C12.5376 28.2882 12.7795 28.0209 12.4326 27.7558C12.3442 27.6883 12.292 27.6191 12.1852 27.5707C12.1491 27.7461 12.1148 27.8173 12.1373 28.0162Z" fill="white"/>
</svg>
