<svg viewBox="0 0 45 45" fill="none" xmlns="http://www.w3.org/2000/svg"><circle cx="22.5" cy="22.5" r="22" stroke="#000F46" stroke-opacity=".4"/><path d="M28.727 19.77a2.462 2.462 0 01-1.497-1.497H16.454a.818.818 0 110-1.636H27.23a2.455 2.455 0 113.133 3.133v9.14a.818.818 0 01-.818.817H14.818A.819.819 0 0114 28.91v-9a.819.819 0 011.252-.694l6.098 3.811 4.468-2.98a.818.818 0 11.909 1.362l-4.91 3.273a.818.818 0 01-.887.013l-5.294-3.309v6.706h13.091v-8.32zm.818-1.497a.818.818 0 100-1.636.818.818 0 000 1.636z" fill="#000F46"/></svg>