<svg width="226" height="24" viewBox="0 0 226 24" fill="none" xmlns="http://www.w3.org/2000/svg">
<path d="M12.3386 23.3505C15.465 23.3505 18.4039 22.2729 20.4985 20.4663V9.91201H12.3699L10.7754 13.4618H16.8719V18.6597C15.6213 19.4521 13.9644 19.8642 12.3386 19.8642C7.96165 19.8642 4.67893 16.346 4.67893 11.8454C4.67893 7.34473 7.96165 3.82663 12.3386 3.82663C14.5584 3.82663 16.7156 4.71408 18.0912 6.20373L20.436 3.60475C18.4039 1.44951 15.4963 0.34021 12.3386 0.34021C6.05455 0.34021 0.989777 5.34797 0.989777 11.8454C0.989777 18.3428 6.05455 23.3505 12.3386 23.3505ZM127.109 23.097H130.736V0.593771H127.109V23.097ZM40.914 19.8642C36.537 19.8642 33.2543 16.346 33.2543 11.8454C33.2543 7.34473 36.537 3.82663 40.914 3.82663C45.2909 3.82663 48.5737 7.34473 48.5737 11.8454C48.5737 16.346 45.2909 19.8642 40.914 19.8642ZM40.914 23.3505C47.2293 23.3505 52.2628 18.3428 52.2628 11.8454C52.2628 5.34797 47.2293 0.34021 40.914 0.34021C34.6299 0.34021 29.5651 5.34797 29.5651 11.8454C29.5651 18.3428 34.6299 23.3505 40.914 23.3505ZM61.6733 23.097H74.6479V19.4521H65.2999V0.593771H61.6733V23.097ZM86.8408 19.674V4.0168H90.2486C95.032 4.0168 98.1897 7.40812 98.1897 11.8454C98.1897 16.2826 95.032 19.674 90.2486 19.674H86.8408ZM83.2142 23.097H90.2486C96.8766 23.097 101.879 18.216 101.879 11.8454C101.879 5.47475 96.8766 0.593771 90.2486 0.593771H83.2142V23.097ZM141.428 23.097H149.932C154.215 23.097 157.31 20.5614 157.31 16.6313C157.31 13.8422 155.841 12.0039 153.746 11.1164C155.09 10.1339 155.809 8.771 155.809 6.74254C155.809 3.4146 153.308 0.593771 149.275 0.593771H141.428V23.097ZM145.055 19.674V13.2083H149.932C152.433 13.2083 153.652 14.6028 153.652 16.4728C153.652 18.3428 152.433 19.674 149.932 19.674H145.055ZM145.055 10.0705V3.9851H148.806C151.057 3.9851 152.151 5.37966 152.151 7.02778C152.151 8.77099 151.057 10.0705 148.806 10.0705H145.055ZM166.564 23.097H170.191V0.593771H166.564V23.097ZM178.945 23.097H196.546V19.4838H185.166L196.765 0.593771H180.258V4.20695H190.544L178.945 23.097ZM203.643 23.097H207.52L209.834 18.0892H219.119L221.433 23.097H225.341L214.492 0.34021L203.643 23.097ZM214.492 8.07371L217.556 14.7296H211.397L214.492 8.07371Z" fill="white"/>
</svg>
