<svg viewBox="0 0 29 15" fill="none" xmlns="http://www.w3.org/2000/svg"><path d="M.45 6.918h26.89L21.18.758a.453.453 0 010-.63c.18-.17.46-.17.63 0l6.93 6.92c0 .01 0 .01.01.02s.01.02.02.03c.01 0 .01.01.02.02s.01.02.02.03c0 .01.01.02.01.03.01.01.01.01.01.02 0 0 0 .01.01.01 0 .01 0 .02.01.03 0 .01 0 .02.01.03v.07c.01.01.01.02.01.03 0 .01 0 .02-.01.03v.07c-.01.01-.01.02-.01.03-.01.01-.01.02-.01.03-.01 0-.01.01-.01.01 0 .01 0 .02-.01.02 0 .01-.01.02-.01.03-.01.01-.01.02-.02.03-.01.01-.01.02-.02.02-.01.01-.01.02-.02.03-.01.01-.01.01-.01.02l-6.93 6.92c-.08.09-.2.13-.31.13-.12 0-.23-.04-.32-.13a.453.453 0 010-.63l6.16-6.16H.45c-.25 0-.45-.2-.45-.45s.2-.45.45-.45z" fill="#2F3640"/></svg>