<svg viewBox="0 0 45 45" fill="none" xmlns="http://www.w3.org/2000/svg"><path d="M24.43 31.789c-.23-.233-1.04-1.648-1.802-3.145-.76-1.497-1.537-2.942-1.725-3.212-.215-.306-1.43-1.036-3.255-1.955-3.285-1.653-3.727-2.008-3.638-2.923.081-.836.414-1.01 5.039-2.618l7.581-2.637C28.685 14.585 30.594 14 30.872 14c.582 0 1.128.514 1.128 1.061 0 .206-.685 2.354-1.523 4.773-.838 2.419-1.8 5.2-2.137 6.182-1.14 3.316-2.012 5.537-2.304 5.867-.4.452-1.105.411-1.606-.094z" fill="#000F46"/><circle cx="22.5" cy="22.5" r="22" stroke="#000F46" stroke-opacity=".38"/></svg>