<svg viewBox="0 0 25 25" fill="none" xmlns="http://www.w3.org/2000/svg"><path d="M13.572 17.66c-.128-.129-.578-.915-1-1.747-.423-.832-.855-1.634-.96-1.784-.119-.17-.793-.575-1.808-1.086-1.825-.919-2.07-1.116-2.02-1.624.044-.465.23-.561 2.798-1.455L14.794 8.5c1.142-.397 2.203-.721 2.357-.721.323 0 .627.285.627.59 0 .114-.381 1.307-.846 2.65-.466 1.345-1 2.89-1.187 3.435-.634 1.842-1.119 3.076-1.28 3.26-.222.251-.615.228-.893-.053z" fill="#fff"/><circle cx="12.5" cy="12.5" r="12" stroke="#fff" stroke-opacity=".4"/></svg>