<svg viewBox="0 0 25 25" fill="none" xmlns="http://www.w3.org/2000/svg"><path d="M17.778 12.094c0 2.69-2.198 4.87-4.91 4.87-.86 0-1.669-.22-2.372-.605l-2.718.863.886-2.613a4.82 4.82 0 01-.705-2.515c0-2.69 2.198-4.872 4.91-4.872 2.711 0 4.909 2.181 4.909 4.872zm-4.91-4.096c-2.275 0-4.127 1.837-4.127 4.096 0 .896.292 1.726.786 2.4l-.515 1.522 1.586-.504a4.126 4.126 0 002.27.677c2.276 0 4.128-1.837 4.128-4.095 0-2.259-1.851-4.096-4.127-4.096zm2.48 5.217c-.03-.05-.11-.08-.231-.139-.12-.06-.712-.349-.822-.388-.11-.04-.191-.06-.271.06-.08.119-.311.388-.381.467-.07.08-.14.09-.261.03-.12-.06-.508-.185-.968-.592a3.6 3.6 0 01-.67-.827c-.07-.12-.006-.184.054-.243.054-.054.12-.14.18-.21.06-.07.08-.119.12-.199.04-.08.02-.149-.01-.209s-.27-.647-.37-.886c-.1-.24-.201-.2-.271-.2s-.15-.01-.231-.01c-.08 0-.21.03-.321.15-.11.12-.421.409-.421.996s.431 1.155.491 1.235c.06.08.833 1.324 2.056 1.802s1.223.319 1.444.299c.22-.02.712-.29.813-.568.1-.279.1-.518.07-.568z" fill="#fff"/><circle cx="12.5" cy="12.5" r="12" stroke="#fff" stroke-opacity=".4"/></svg>