<svg viewBox="0 0 45 45" fill="none" xmlns="http://www.w3.org/2000/svg"><path d="M28.06 26.327c-.136 0-.233.038-.292.119-.06.076-.088.206-.088.387v.437h.75v-.437c0-.18-.03-.31-.09-.387-.056-.081-.151-.12-.28-.12zM25.133 26.311a.403.403 0 00-.181.042.625.625 0 00-.175.132v2.691c.069.07.137.123.202.153.064.03.133.046.204.046.105 0 .18-.03.23-.091.048-.06.073-.159.073-.298v-2.23c0-.146-.03-.257-.09-.332a.322.322 0 00-.264-.113z" fill="#FFD600"/><path d="M29.85 22.965c-.697-.697-6.574-.706-6.574-.706s-5.876.01-6.575.706c-.699.697-.701 4.141-.701 4.161 0 .027.001 3.464.701 4.162.699.697 6.575.712 6.575.712s5.877-.015 6.574-.71c.702-.7.708-4.163.708-4.163 0-.02-.008-3.465-.708-4.162zm-9.368 2.029h-.99v5.002h-.957v-5.002h-.99v-.85h2.937v.85zm2.797 5.002h-.848v-.474c-.158.176-.32.309-.49.4-.17.093-.334.138-.493.138-.197 0-.343-.063-.445-.193-.098-.13-.148-.32-.148-.579v-3.61h.848v3.312c0 .103.019.176.053.222.037.046.094.068.174.068a.47.47 0 00.237-.091c.096-.061.183-.138.264-.232v-3.28h.848v4.32zm3.08-.892c0 .306-.066.54-.2.704-.131.163-.324.244-.576.244a.987.987 0 01-.444-.094 1.086 1.086 0 01-.363-.293v.331h-.858v-5.852h.858v1.884c.116-.132.236-.232.365-.3a.82.82 0 01.39-.102c.27 0 .475.091.616.275.144.184.213.453.213.807v2.396zm2.945-1.162H27.68v.812c0 .228.028.385.082.474.058.088.153.13.288.13.141 0 .238-.036.295-.11.056-.074.086-.239.086-.493v-.197h.873v.222c0 .444-.105.777-.32 1.002-.21.224-.529.335-.951.335-.38 0-.68-.118-.9-.356-.217-.236-.328-.563-.328-.98v-1.938c0-.374.122-.68.361-.916.24-.235.549-.354.93-.354.39 0 .688.11.897.328.208.217.312.532.312.942v1.099zM28.056 20.447h-.957v-.525a1.988 1.988 0 01-.55.442c-.19.1-.374.152-.553.152-.224 0-.388-.071-.5-.213-.111-.141-.168-.354-.168-.638V15.69h.954v3.647c0 .112.022.194.062.244.04.05.105.076.194.076a.54.54 0 00.266-.1c.108-.068.206-.152.294-.257v-3.61h.957v4.757zM24.175 15.917c-.254-.23-.579-.346-.973-.346-.434 0-.78.11-1.037.327-.258.218-.386.512-.386.88v2.466c0 .404.126.726.376.965.25.238.586.358 1.004.358.435 0 .775-.116 1.025-.348.246-.232.37-.55.37-.957v-2.458a1.15 1.15 0 00-.38-.887zm-.596 3.417a.4.4 0 01-.115.301.434.434 0 01-.309.109c-.127 0-.224-.035-.291-.107a.429.429 0 01-.103-.303v-2.591a.32.32 0 01.11-.252.416.416 0 01.284-.095c.125 0 .228.031.306.095a.308.308 0 01.117.252v2.591zM19.174 14H18.09l1.281 3.893v2.554h1.077v-2.674L21.7 14h-1.095l-.663 2.578h-.069L19.174 14z" fill="#FFD600"/><path d="M44.5 22.5c0 12.15-9.85 22-22 22s-22-9.85-22-22 9.85-22 22-22 22 9.85 22 22z" stroke="#fff" stroke-opacity=".4"/></svg>